<?xml version="1.0" standalone="no"?>
<!DOCTYPE svg PUBLIC "-//W3C//DTD SVG 20010904//EN"
 "http://www.w3.org/TR/2001/REC-SVG-20010904/DTD/svg10.dtd">
<svg version="1.0" xmlns="http://www.w3.org/2000/svg"
 width="300.000000pt" height="686.000000pt" viewBox="0 0 300.000000 686.000000"
 preserveAspectRatio="xMidYMid meet">
<metadata>
Created by potrace 1.16, written by Peter Selinger 2001-2019
</metadata>
<g transform="translate(0.000000,686.000000) scale(0.100000,-0.100000)"
fill="#000000" stroke="none">
<path d="M0 5549 l0 -1311 28 7 c15 4 52 10 83 13 63 8 113 44 142 102 21 41
21 51 2 44 -17 -7 -31 36 -21 63 6 15 10 13 32 -10 14 -15 30 -27 37 -27 29 0
86 -40 145 -100 112 -116 106 -108 92 -125 -10 -12 -10 -18 0 -30 7 -8 18 -15
24 -15 21 -1 95 -106 106 -151 33 -127 40 -175 42 -290 2 -99 0 -130 -13 -150
-20 -32 -46 -104 -54 -154 -9 -50 -58 -160 -77 -171 -21 -13 -38 -48 -38 -79
0 -38 -80 -192 -110 -210 -5 -3 -10 -27 -10 -53 0 -51 -15 -82 -81 -168 -31
-40 -42 -66 -50 -115 -16 -98 -38 -150 -83 -197 l-41 -43 -3 -117 c-4 -168 -6
-177 -64 -238 -88 -93 -83 -28 -86 -1092 l-2 -932 1150 0 c632 0 1150 3 1150
8 0 4 -18 15 -39 25 -30 14 -38 22 -34 37 5 17 11 19 47 13 22 -3 60 -14 84
-25 24 -10 48 -18 53 -18 6 0 29 -9 51 -20 38 -18 62 -20 290 -20 l248 0 0
526 c0 347 -3 523 -10 519 -5 -3 -10 -14 -10 -23 0 -18 -73 -243 -90 -277 -20
-39 -122 -351 -136 -414 -16 -72 -20 -81 -38 -81 -13 0 -325 156 -339 169 -5
5 23 6 62 3 61 -4 71 -2 71 12 0 18 17 20 55 6 20 -8 27 -7 31 5 7 16 -42 85
-61 85 -24 0 -85 70 -85 98 0 42 12 52 69 59 28 3 54 9 56 13 3 5 2 22 -1 39
-5 23 -12 31 -28 32 -21 0 -21 0 1 9 17 7 22 17 21 48 0 35 -5 43 -44 71 -38
27 -43 34 -34 50 5 11 24 29 40 41 30 21 30 23 15 47 -15 23 -15 26 0 43 10
11 29 21 44 23 l26 3 -26 11 c-22 9 -27 20 -31 58 -7 61 -1 80 28 94 31 14 30
30 -3 57 -23 18 -26 25 -15 35 16 17 15 29 -2 29 -16 0 -29 27 -20 41 8 14 22
11 43 -10 20 -20 71 -36 71 -22 0 5 -6 11 -14 14 -8 3 -24 26 -35 52 -11 25
-27 48 -36 51 -14 6 -12 9 7 20 13 7 35 18 51 25 15 6 27 15 27 19 0 5 -20 23
-45 40 -67 46 -57 66 19 35 20 -8 36 -20 36 -25 0 -6 4 -10 9 -10 10 0 8 51
-2 67 -9 15 19 66 40 74 15 6 14 8 -8 17 -34 13 -118 16 -186 7 -37 -5 -53 -4
-53 3 0 27 118 52 243 52 43 0 77 4 77 10 0 42 -181 45 -341 5 -25 -6 -26 -5
-32 50 -4 35 -1 67 7 88 21 51 27 107 12 107 -20 0 -46 -34 -46 -61 0 -13 -18
-50 -40 -83 -22 -32 -40 -65 -40 -72 0 -22 -20 -27 -39 -10 -19 17 -51 12 -51
-8 1 -6 11 -24 24 -39 17 -22 30 -28 52 -25 24 2 29 8 32 35 2 17 10 37 18 43
30 25 14 -50 -26 -127 -32 -59 -39 -82 -35 -107 5 -26 2 -33 -22 -48 -15 -9
-45 -19 -65 -23 -51 -10 -66 -30 -40 -52 24 -22 62 -107 53 -120 -3 -6 -62
-13 -131 -16 -69 -3 -156 -13 -195 -22 -44 -10 -134 -18 -240 -21 -244 -8
-254 -10 -224 -67 9 -16 9 -22 0 -25 -16 -5 -14 -22 3 -22 12 0 13 -11 9 -54
-3 -29 -1 -61 4 -70 6 -12 6 -42 -3 -89 -12 -72 -11 -83 9 -126 9 -19 9 -25
-1 -28 -7 -3 -12 -23 -12 -52 0 -26 -5 -52 -10 -57 -8 -8 -8 -19 0 -38 12 -32
13 -46 2 -46 -16 0 -34 62 -29 103 3 23 10 84 16 135 6 52 9 97 7 101 -3 4 -6
54 -7 112 -1 57 -6 113 -12 124 -6 11 -12 38 -12 60 l0 40 -45 3 c-25 1 -92 9
-150 17 -265 37 -266 38 -254 68 5 14 14 16 48 10 22 -3 44 -10 47 -16 4 -6
34 -7 75 -3 38 3 87 2 108 -3 22 -6 47 -6 55 -2 15 9 3 13 -86 26 -24 4 -45
11 -49 16 -3 5 -25 9 -50 9 -24 0 -62 6 -85 13 -33 10 -39 15 -34 32 4 11 10
34 14 50 5 17 15 46 24 65 l15 35 1 -32 c1 -17 5 -34 9 -37 14 -9 52 24 52 45
0 28 28 36 45 13 16 -22 10 -101 -11 -124 -8 -9 -10 -21 -5 -29 13 -21 51 4
51 34 0 13 9 40 21 59 41 69 60 139 65 241 7 146 11 165 34 165 22 0 45 31 55
72 4 14 15 34 26 44 11 10 19 30 19 50 0 31 14 79 45 149 26 59 37 114 69 345
21 155 28 276 25 455 -5 361 -4 537 4 542 4 2 23 -9 43 -26 80 -71 188 -106
324 -106 117 0 161 14 265 81 92 60 112 80 150 151 37 69 28 87 -13 25 -33
-52 -90 -112 -104 -112 -5 0 -35 -17 -66 -38 -101 -68 -148 -85 -237 -85 -60
-1 -96 5 -142 21 -71 26 -145 66 -163 87 -7 8 -18 15 -26 15 -7 0 -20 10 -28
22 -18 26 -22 108 -5 108 6 0 32 -17 58 -38 70 -58 104 -80 137 -88 16 -4 34
-10 39 -14 15 -10 100 -30 130 -30 36 0 173 48 211 74 93 63 130 111 168 216
59 165 64 449 8 438 -14 -3 -18 -24 -24 -140 -16 -298 -50 -359 -263 -464 -69
-34 -88 -39 -150 -39 -63 0 -77 4 -129 35 -84 50 -166 127 -166 155 0 13 5 27
11 31 12 7 4 141 -12 181 -6 17 -4 23 12 28 16 5 19 12 13 40 -3 18 -1 35 4
39 6 3 40 -8 76 -25 65 -31 96 -33 96 -6 0 7 -11 24 -25 37 -14 13 -25 32 -25
42 0 11 -6 31 -14 46 -7 15 -16 51 -19 80 -6 50 -5 53 20 63 14 5 36 18 49 28
19 15 35 18 87 14 106 -9 233 42 315 125 12 12 30 22 40 22 30 1 -61 50 -92
50 -58 0 -162 24 -182 42 -11 10 -25 18 -31 18 -6 0 -36 10 -67 21 -53 21 -71
41 -43 52 6 3 2 6 -9 6 -12 1 -25 8 -28 17 -9 22 0 30 17 15 11 -9 27 -5 70
14 76 35 83 45 63 95 -22 54 -21 61 18 229 35 148 42 207 33 271 -3 19 -8 86
-12 149 -4 63 -12 120 -18 128 -7 8 -21 24 -32 36 -11 12 -27 35 -35 52 -8 17
-43 48 -79 72 -85 55 -97 68 -82 86 6 8 9 22 5 30 -7 19 29 82 51 91 15 5 65
100 65 122 0 6 11 19 25 28 28 18 33 44 10 52 -26 10 -16 25 12 19 44 -10 190
-54 283 -86 78 -27 120 -43 263 -94 40 -14 52 -24 68 -59 11 -22 33 -60 50
-84 17 -24 33 -60 36 -82 5 -35 3 -40 -25 -54 -17 -9 -47 -16 -66 -16 -54 0
-166 -48 -178 -76 -6 -13 -8 -27 -5 -30 4 -4 35 1 69 10 68 18 175 37 221 38
37 2 58 -21 68 -74 11 -60 11 -166 -1 -173 -6 -3 -10 -15 -10 -26 0 -23 -3
-23 -55 -5 -77 26 -111 34 -170 41 -45 5 -55 9 -42 16 23 14 21 29 -3 29 -52
0 -118 -67 -103 -106 3 -8 -1 -21 -8 -30 -10 -13 -8 -20 18 -46 27 -27 39 -31
102 -36 65 -4 72 -3 90 19 27 32 26 41 -9 64 -35 23 -38 35 -9 35 11 0 29 5
40 11 27 14 54 4 67 -27 17 -36 15 -55 -11 -82 -21 -23 -21 -24 -2 -19 77 21
83 20 99 -17 17 -41 49 -226 47 -276 -3 -96 -14 -147 -72 -328 -6 -19 -9 -35
-7 -37 6 -6 52 55 76 100 111 210 197 465 232 690 14 91 23 100 78 81 l42 -15
0 629 0 630 -1500 0 -1500 0 0 -1311z m1590 276 c11 4 25 -2 37 -14 10 -11 32
-23 48 -27 35 -8 67 -33 59 -45 -3 -5 -1 -9 5 -9 18 0 41 -64 37 -100 -3 -21
2 -45 11 -59 18 -27 12 -97 -12 -155 -8 -19 -15 -47 -15 -61 0 -14 -9 -30 -20
-37 -24 -15 -26 -28 -5 -28 12 0 13 -9 8 -47 -3 -25 -13 -55 -22 -66 -9 -10
-24 -28 -34 -40 -22 -26 -17 -119 7 -146 15 -16 14 -19 -7 -39 -13 -12 -30
-22 -38 -22 -8 0 -23 -7 -33 -15 -11 -8 -30 -15 -42 -15 -12 0 -24 -7 -28 -15
-3 -8 -14 -15 -25 -15 -10 0 -21 -7 -25 -15 -3 -8 -10 -15 -17 -15 -6 0 -8 7
-5 15 3 9 2 23 -3 33 -14 26 -31 184 -32 297 -1 84 2 106 18 133 24 39 91 98
127 112 14 5 26 17 26 26 0 9 6 14 13 11 7 -3 24 1 38 9 13 7 38 13 56 14 40
0 51 28 29 74 -16 35 -52 54 -163 90 -28 10 -57 23 -63 31 -10 12 -4 16 34 26
37 9 44 14 35 25 -6 7 -20 14 -32 16 -25 3 -37 38 -14 38 18 0 30 27 16 35 -5
4 -6 12 -2 18 5 8 9 6 11 -6 3 -12 9 -16 22 -12z m781 -5616 c82 -27 227 -83
262 -101 34 -17 38 -22 32 -46 -14 -59 -21 -58 -181 21 -82 41 -164 80 -181
87 -46 18 -46 50 1 50 18 0 48 -5 67 -11z"/>
</g>
</svg>
